<svg width="186" height="186" viewBox="0 0 186 186" fill="none" xmlns="http://www.w3.org/2000/svg"><path d="M59 118.034l-12.125 40.5h-7.614l13.137-43.875M61.727 118.034l12.125 40.5h7.602L68.33 114.659M53.16 108.659l-12.785 2.898-4.966-20.523 12.989-2.954" fill="#DCECFF"/><path d="M51.75 101.966l-3.67-15.16L89.51 76.285l5.591 23.114L70 105.784" fill="#DCECFF"/><path d="M95.494 101.049l10.57-2.558-6.383-26.386-10.57 2.557 6.383 26.387z" fill="#DCECFF"/><path d="M100.193 74.227c8.068 0 12.773 17.046 5.307 21.932z" fill="#66A4FF"/><path d="M32.284 111.42l7.591-2.034-3.83-15.795-7.59 2.034 3.83 15.795z" fill="#DCECFF"/><g opacity=".5" fill="#92C4FF"><path opacity=".5" d="M53.284 108.636l-5.34 1.284-4.967-20.522 5.42-1.319M89.807 100.75l-5.5-22.704 5.204-1.762 5.591 23.114-3.148 1.068M36.023 110.511l3.852-1.125-3.83-15.795-3.84 1.125 3.818 15.795zM51.057 119.182a13.804 13.804 0 006.716 2.886L59 118.045l-6.602-3.409-1.341 4.546zM68.33 114.636l-6.603 3.409 1.137 3.841a13.78 13.78 0 006.545-3.545l-1.08-3.705z"/></g><path d="M29.305 99.067l-10.161 2.458 2.154 8.902 10.161-2.458-2.154-8.902zM59.795 118.08c5.379 0 9.74-4.361 9.74-9.739a9.738 9.738 0 00-9.74-9.739c-5.378 0-9.738 4.36-9.738 9.739 0 5.378 4.36 9.739 9.738 9.739z" fill="#66A4FF"/><path d="M117.739 33.59a3.25 3.25 0 100-6.499 3.25 3.25 0 000 6.5zM163.625 79.534a3.25 3.25 0 100-6.5 3.25 3.25 0 000 6.5zM117.739 125.477a3.25 3.25 0 100-6.5 3.25 3.25 0 000 6.5zM90.204 58.466c5.379 0 9.74-4.365 9.74-9.75s-4.361-9.75-9.74-9.75c-5.378 0-9.738 4.365-9.738 9.75s4.36 9.75 9.739 9.75zM145.261 58.466c5.379 0 9.739-4.365 9.739-9.75s-4.36-9.75-9.739-9.75c-5.378 0-9.738 4.365-9.738 9.75s4.36 9.75 9.738 9.75zM145.261 113.602c5.379 0 9.739-4.365 9.739-9.75s-4.36-9.75-9.739-9.75c-5.378 0-9.738 4.365-9.738 9.75s4.36 9.75 9.738 9.75z" fill="#FC95BF"/><path d="M40.375 112.693a1.135 1.135 0 01-1.136-.863l-4.932-20.534a1.137 1.137 0 01.852-1.376l9.455-2.147a1.136 1.136 0 01.5 2.216l-8.33 1.92 4.432 18.318 7.954-1.738a1.158 1.158 0 011.381.892 1.162 1.162 0 01-.892 1.38l-9.045 1.909a.833.833 0 01-.239.023zM69.989 106.92a1.143 1.143 0 11-.273-2.272l24.011-6.102-5.056-20.91-39.217 10 3.41 14.057a1.137 1.137 0 11-2.205.534L46.977 87.08a1.136 1.136 0 01.83-1.375l41.42-10.523a1.138 1.138 0 011.387.818l5.59 23.114a1.137 1.137 0 01-.829 1.363l-25.102 6.409a1.089 1.089 0 01-.284.034z" fill="#1351AA"/><path d="M95.5 102.136a1.134 1.134 0 01-.602-.17 1.204 1.204 0 01-.512-.705L88 74.921a1.205 1.205 0 01.136-.864 1.137 1.137 0 01.705-.511l10.568-2.557a1.135 1.135 0 01.864.136c.252.163.434.414.511.705l6.375 26.386a1.139 1.139 0 01-.829 1.375l-10.569 2.545H95.5zm-5.023-26.647L96.33 99.67l8.363-2.022-5.852-24.182-8.364 2.023z" fill="#1351AA"/><path d="M107.773 94.92a1.137 1.137 0 01-.58-.17 1.137 1.137 0 01-.386-1.557c2.011-3.33 1.682-9.09-.784-13.489-1.557-2.76-3.682-4.34-5.818-4.34a1.137 1.137 0 110-2.273c2.988 0 5.829 2 7.795 5.5 2.466 4.375 3.523 11.193.75 15.773a1.142 1.142 0 01-.977.556zM32.284 112.557a1.133 1.133 0 01-1.136-.875l-3.796-15.796a1.135 1.135 0 01.875-1.363l7.591-2.034a1.137 1.137 0 01.864.125 1.136 1.136 0 01.534.704l3.818 15.807a1.137 1.137 0 01-.807 1.364l-7.602 2.022a.824.824 0 01-.34.046zM29.83 96.454l3.284 13.637 5.397-1.443-3.295-13.637-5.386 1.444z" fill="#1351AA"/><path d="M21.284 111.557a1.137 1.137 0 01-.59-.159 1.204 1.204 0 01-.512-.705L18 101.795a1.135 1.135 0 01.84-1.375l10.183-2.454a1.135 1.135 0 11.534 2.204l-9.091 2.194 1.613 6.693 5.682-1.364a1.138 1.138 0 011.375.841 1.136 1.136 0 01-.84 1.364l-6.74 1.636c-.089.019-.18.026-.272.023zM59.795 119.182a10.878 10.878 0 01-10.056-6.708 10.876 10.876 0 1110.056 6.708zm0-19.466a8.601 8.601 0 108.591 8.602 8.617 8.617 0 00-8.59-8.58v-.022z" fill="#1351AA"/><path opacity=".3" d="M59.795 114.727a6.384 6.384 0 01-4.697-1.774 6.4 6.4 0 01-1.457-7.128 6.395 6.395 0 016.154-3.882 1.137 1.137 0 010 2.273 4.127 4.127 0 00-2.932 7.038 4.124 4.124 0 007.046-2.913 1.136 1.136 0 012.273 0 6.387 6.387 0 01-6.387 6.386zM63.75 94.92a1.045 1.045 0 01-.58-.17 1.137 1.137 0 01-.522-.704l-2.216-9.16a1.14 1.14 0 012.216-.534l1.943 8.046 26.818-6.818a1.137 1.137 0 01.557 2.204l-27.932 7.091a1.135 1.135 0 01-.284.046z" fill="#1351AA"/><path d="M46.875 159.67h-7.614a1.14 1.14 0 01-.91-.454 1.132 1.132 0 01-.17-1l13.126-43.875a1.14 1.14 0 01.549-.683 1.127 1.127 0 01.871-.09 1.134 1.134 0 01.806.978c.014.149 0 .299-.044.443l-12.694 42.409h5.24l10.67-35.659a1.134 1.134 0 011.41-.762c.144.04.28.108.399.2a1.133 1.133 0 01.395 1.209l-10.92 36.478a1.14 1.14 0 01-1.114.806zM81.455 159.67H73.84a1.135 1.135 0 01-1.136-.806l-12.069-40.5a1.138 1.138 0 01.762-1.455 1.125 1.125 0 01.868.085 1.14 1.14 0 01.552.676l11.875 39.682h5.239l-11.603-38.693a1.138 1.138 0 01.807-1.42 1.136 1.136 0 011.41.772l12 40.205a1.138 1.138 0 01-1.137 1.454h.046z" fill="#1351AA"/><path d="M117.739 34.727a4.356 4.356 0 01-3.148-1.284 4.399 4.399 0 010-6.204 4.544 4.544 0 016.193 0 4.378 4.378 0 01.951 4.781 4.369 4.369 0 01-.951 1.423 4.305 4.305 0 01-3.045 1.284zm0-6.5a2.121 2.121 0 00-1.938 1.316 2.127 2.127 0 00.449 2.298 2.158 2.158 0 002.977 0 2.13 2.13 0 00.403-2.263 2.128 2.128 0 00-1.891-1.305v-.046zM163.614 80.67a4.326 4.326 0 01-3.091-1.26 4.395 4.395 0 010-6.206 4.475 4.475 0 016.193 0 4.4 4.4 0 010 6.205 4.355 4.355 0 01-3.102 1.261zm0-6.5a2.113 2.113 0 100 4.228 2.097 2.097 0 002.114-2.108 2.127 2.127 0 00-1.3-1.96 2.07 2.07 0 00-.814-.16zM117.739 126.614a4.362 4.362 0 01-3.148-1.284 4.4 4.4 0 010-6.148 4.477 4.477 0 016.193 0 4.377 4.377 0 01.951 4.781 4.367 4.367 0 01-.951 1.423 4.304 4.304 0 01-3.045 1.228zm0-6.5a2.073 2.073 0 00-1.489.613 2.104 2.104 0 000 2.989 2.115 2.115 0 003.082.093 2.12 2.12 0 00.615-1.564 2.12 2.12 0 00-.72-1.518 2.112 2.112 0 00-1.488-.613zM90.204 59.602a10.783 10.783 0 01-7.681-3.193 10.898 10.898 0 010-15.386 10.75 10.75 0 017.681-3.182 10.751 10.751 0 017.682 3.182 10.899 10.899 0 010 15.386 10.761 10.761 0 01-7.681 3.193zm0-19.488a8.614 8.614 0 106.08 2.522 8.546 8.546 0 00-6.08-2.522zM145.273 59.602a10.888 10.888 0 01-2.131-21.564 10.887 10.887 0 019.824 2.985 10.881 10.881 0 012.356 11.858 10.889 10.889 0 01-10.049 6.721zm0-19.488a8.612 8.612 0 00-7.611 12.668 8.612 8.612 0 0014.76.733 8.614 8.614 0 00-1.07-10.879 8.537 8.537 0 00-6.079-2.522zM145.273 114.727a10.753 10.753 0 01-4.16-.821 10.765 10.765 0 01-3.522-2.361 10.876 10.876 0 014.528-18.1 10.876 10.876 0 0110.055 18.816 10.875 10.875 0 01-6.901 2.466zm0-19.488a8.55 8.55 0 00-6.08 2.522 8.636 8.636 0 000 12.182 8.614 8.614 0 0012.159 0 8.635 8.635 0 000-12.182 8.537 8.537 0 00-6.079-2.522z" fill="#E44F89"/><path opacity=".3" d="M130.977 42.58a1.048 1.048 0 01-.409-.08 35.977 35.977 0 00-8.113-2.034 1.148 1.148 0 01-.989-1.284 1.144 1.144 0 011.284-.989 38.704 38.704 0 018.625 2.17c.252.092.464.27.597.502a1.137 1.137 0 01-.995 1.703v.012zm-26.261-.08a1.139 1.139 0 01-1.068-.75 1.136 1.136 0 01.716-1.455 38.402 38.402 0 019.091-2.17 1.14 1.14 0 011.261 1.011 1.15 1.15 0 01-.586 1.127 1.144 1.144 0 01-.425.135 36.173 36.173 0 00-8.546 2.034.953.953 0 01-.443.068zM80.66 73.636h-.16a1.136 1.136 0 01-1.011-1.25c.308-3.103.999-6.156 2.056-9.09A1.136 1.136 0 0183 62.613a1.135 1.135 0 01.693 1.454 35.758 35.758 0 00-1.897 8.523 1.136 1.136 0 01-1.137 1.045zM120.42 114.636a1.128 1.128 0 01-.815-.304 1.136 1.136 0 01.736-1.968c2.933-.206 5.83-.77 8.625-1.682a1.134 1.134 0 011.392.74 1.133 1.133 0 01-.688 1.419 38.627 38.627 0 01-9.17 1.795h-.08zm-9.09-.454h-.148a38.657 38.657 0 01-8.955-2.705 1.137 1.137 0 11.921-2.079 35.8 35.8 0 008.42 2.545 1.14 1.14 0 01-.193 2.273l-.045-.034zM152.977 89.568c-.124.021-.251.021-.375 0a1.136 1.136 0 01-.704-1.443 36.365 36.365 0 001.829-8.602 1.144 1.144 0 011.233-1.04 1.145 1.145 0 01.775.401c.097.115.17.247.215.39.046.142.063.293.05.442a38.064 38.064 0 01-1.943 9.148 1.14 1.14 0 01-1.08.705zm1.58-17.932a1.137 1.137 0 01-1.137-.965 35.796 35.796 0 00-2.409-8.444 1.139 1.139 0 01.619-1.449 1.138 1.138 0 011.472.563 38.538 38.538 0 012.58 8.977 1.143 1.143 0 01-.209.846 1.127 1.127 0 01-.746.45l-.17.022z" fill="#1351AA"/></svg>
